<?xml version="1.0" encoding="UTF-8" standalone="no"?>
<svg xmlns:bx="https://boxy-svg.com" xmlns:inkscape="http://www.inkscape.org/namespaces/inkscape"
    xmlns:sodipodi="http://sodipodi.sourceforge.net/DTD/sodipodi-0.dtd" xmlns:xlink="http://www.w3.org/1999/xlink" height="762"
    id="svg270" version="1.1" viewBox="0 0 762 762" width="762" xmlns="http://www.w3.org/2000/svg"
    inkscape:export-filename="spotube-logo.png" inkscape:export-xdpi="96" inkscape:export-ydpi="96"
    inkscape:version="1.2.2 (b0a8486541, 2022-12-01)" sodipodi:docname="spotube-logo.svg"
    xml:space="preserve"><sodipodi:namedview
     bordercolor="#000000"
     borderopacity="0.25"
     id="namedview272"
     pagecolor="#ffffff"
     showgrid="false"
     inkscape:current-layer="svg270"
     inkscape:cx="194.22573"
     inkscape:cy="314.96064"
     inkscape:deskcolor="#d1d1d1"
     inkscape:lockguides="false"
     inkscape:pagecheckerboard="0"
     inkscape:pageopacity="0.0"
     inkscape:showpageshadow="2"
     inkscape:window-height="1001"
     inkscape:window-maximized="1"
     inkscape:window-width="1920"
     inkscape:window-x="0"
     inkscape:window-y="0"
     inkscape:zoom="0.76199998"><inkscape:page
       height="762"
       id="page3136"
       width="762"
       x="0"
       y="0" /><inkscape:page height="89.999985" id="page3138" width="89.999939" x="640.44641"
    y="132.29141" /></sodipodi:namedview>
    <defs id="defs220"><linearGradient
       id="linearGradient5535"
       inkscape:collect="always"><stop
         style="stop-color:#00063b;stop-opacity:1;"
         id="stop5531"
         offset="0.25885531" /><stop style="stop-color:#004256;stop-opacity:1;" id="stop5533"
        offset="1" /></linearGradient>
        <linearGradient id="linearGradient2809"><stop
         style="stop-color:#5668ea;stop-opacity:1;"
         id="stop2803"
         offset="0.113" />
            <stop style="stop-color:#0093b1;stop-opacity:1;" id="stop2805" offset="0.60799998" />
            <stop style="stop-color:#00a29f;stop-opacity:1;" id="stop2807" offset="0.94400001" /></linearGradient>
        <linearGradient id="linearGradient938"><stop
         style="stop-color:#5869eb;stop-opacity:1;"
         id="stop932"
         offset="0.113" />
            <stop style="stop-color:#0093b1;stop-opacity:1;" id="stop934" offset="0.60799998" />
            <stop style="stop-color:#02a7a4;stop-opacity:1;" id="stop936" offset="0.94400001" /></linearGradient>
        <radialGradient cx="251.179" cy="248.821" gradientTransform="translate(-1.768285,0.589104)"
            gradientUnits="userSpaceOnUse" id="gradient-2-0" r="241.45" xlink:href="#gradient-2" />
        <linearGradient id="gradient-2"><stop
         style="stop-color: rgb(255, 255, 255);"
         id="stop169"
         offset="0.841" />
            <stop style="stop-color: rgb(201, 201, 201);" id="stop171" offset="1" /></linearGradient>
        <filter height="1.1017849" id="drop-shadow-filter-0" width="1.1017849" x="-0.050892502"
            y="-0.050892502" bx:preset="drop-shadow 1 0 0 10 0.42 rgba(201,201,201,1)"><feGaussianBlur
         id="feGaussianBlur174"
         in="SourceAlpha"
         stdDeviation="10" />
            <feOffset dx="0" dy="0" id="feOffset176" />
            <feComponentTransfer id="feComponentTransfer179" result="offsetblur"><feFuncA
           id="spread-ctrl"
           slope="0.84"
           type="linear" /></feComponentTransfer>
            <feFlood flood-color="rgba(201,201,201,1)" id="feFlood181" />
            <feComposite id="feComposite183" in2="offsetblur" operator="in" />
            <feMerge id="feMerge189"><feMergeNode
           id="feMergeNode185" />
                <feMergeNode id="feMergeNode187" in="SourceGraphic" /></feMerge></filter>
        <linearGradient gradientUnits="userSpaceOnUse" id="gradient-4-3" x1="47.146" x2="47.146"
            y1="18.044001" y2="75.353996" xlink:href="#gradient-4" />
        <linearGradient id="gradient-4"><stop
         style="stop-color: rgb(83, 240, 111);"
         id="stop193"
         offset="0.113" />
            <stop style="stop-color: rgb(0, 177, 86);" id="stop195" offset="0.608" />
            <stop style="stop-color: rgb(2, 167, 156);" id="stop197" offset="0.944" /></linearGradient>
        <filter height="1.108079" id="inner-shadow-filter-0" width="1.1296722" x="-0.064836091"
            y="-0.071329232" bx:preset="inner-shadow 1 0 0 4 0.5 rgba(0,0,0,0.7)"><feOffset
         dx="0"
         dy="0"
         id="feOffset200" />
            <feGaussianBlur id="feGaussianBlur202" result="result1" stdDeviation="4" />
            <feComposite id="feComposite204" in="SourceGraphic" in2="result1" operator="out" />
            <feComponentTransfer id="feComponentTransfer208" result="choke"><feFuncA
           id="feFuncA206"
           slope="1"
           type="linear" /></feComponentTransfer>
            <feFlood flood-color="rgba(0,0,0,0.7)" id="feFlood210" result="color" />
            <feComposite id="feComposite212" in="color" in2="choke" operator="in" result="shadow" />
            <feComposite id="feComposite214" in="shadow" in2="SourceGraphic" operator="over" /></filter>
        <linearGradient gradientTransform="translate(7.2213312)" gradientUnits="userSpaceOnUse"
            id="gradient-4-1" x1="82.026001" x2="82.026001" y1="144.832" y2="264.46201"
            xlink:href="#linearGradient2809" />
        <linearGradient gradientUnits="userSpaceOnUse" id="gradient-4-2" x1="143.69299"
            x2="143.69299" y1="22.804001" y2="264.582" xlink:href="#linearGradient938" />
        <linearGradient gradientTransform="translate(-7.2213312)" gradientUnits="userSpaceOnUse"
            id="gradient-4-0" x1="205.862" x2="205.862" y1="146.28" y2="265.91"
            xlink:href="#gradient-4" />
        <filter style="color-interpolation-filters:sRGB" height="1.6850778" id="filter2000"
            width="1.6850778" x="-0.3425389" y="-0.3425389" inkscape:label="Drop Shadow"><feFlood
         flood-color="rgb(0,0,0)"
         flood-opacity="1"
         id="feFlood1990"
         result="flood" />
            <feComposite id="feComposite1992" in="flood" in2="SourceGraphic" operator="out"
                result="composite1" />
            <feGaussianBlur id="feGaussianBlur1994" in="composite1" result="blur"
                stdDeviation="29.980818" />
            <feOffset dx="0" dy="0" id="feOffset1996" result="offset" />
            <feComposite id="feComposite1998" in="offset" in2="SourceGraphic" operator="atop"
                result="fbSourceGraphic" />
            <feColorMatrix id="feColorMatrix2062" in="fbSourceGraphic" result="fbSourceGraphicAlpha"
                values="0 0 0 -1 0 0 0 0 -1 0 0 0 0 -1 0 0 0 0 1 0" />
            <feFlood flood-color="rgb(0,0,0)" flood-opacity="1" id="feFlood2064"
                in="fbSourceGraphic" result="flood" />
            <feComposite id="feComposite2066" in="flood" in2="fbSourceGraphic" operator="out"
                result="composite1" />
            <feGaussianBlur id="feGaussianBlur2068" in="composite1" result="blur"
                stdDeviation="28.6433" />
            <feOffset dx="0" dy="0" id="feOffset2070" result="offset" />
            <feComposite id="feComposite2072" in="offset" in2="fbSourceGraphic" operator="atop"
                result="fbSourceGraphic" />
            <feColorMatrix id="feColorMatrix3393" in="fbSourceGraphic" result="fbSourceGraphicAlpha"
                values="0 0 0 -1 0 0 0 0 -1 0 0 0 0 -1 0 0 0 0 1 0" />
            <feFlood flood-color="rgb(0,0,0)" flood-opacity="0.352941" id="feFlood3395"
                in="fbSourceGraphic" result="flood" />
            <feComposite id="feComposite3397" in="flood" in2="fbSourceGraphic" operator="in"
                result="composite1" />
            <feGaussianBlur id="feGaussianBlur3399" in="composite1" result="blur"
                stdDeviation="6.59891" />
            <feOffset dx="0" dy="0" id="feOffset3401" result="offset" />
            <feComposite id="feComposite3403" in="fbSourceGraphic" in2="offset" operator="over"
                result="composite2" /></filter>
        <linearGradient gradientTransform="translate(117.34662)" gradientUnits="userSpaceOnUse"
            id="linearGradient5506" x1="82.026001" x2="82.026001" y1="144.832" y2="264.46201"
            inkscape:collect="always" xlink:href="#linearGradient2809" />
        <radialGradient cx="143.6935" cy="143.69299" fx="143.6935" fy="143.69299"
            gradientTransform="matrix(1,0,0,0.8506841,0,21.45565)" gradientUnits="userSpaceOnUse"
            id="radialGradient5537" r="152.72653" inkscape:collect="always"
            xlink:href="#linearGradient5535" /></defs>
    <circle
        style="opacity:1;fill:#242832;fill-opacity:1;stroke:#000000;stroke-width:10;stroke-dasharray:none;stroke-opacity:0.961795;filter:url(#filter2000)"
        cx="381.48901" cy="381.48901" id="path1157" r="235.79112" inkscape:label="path1157"
        sodipodi:insensitive="true" />
    <g id="g228" transform="matrix(0.319972,0,0,0.323174,379.08153,437.03375)"><g
       style="opacity:1;fill:none;fill-rule:nonzero;stroke:none;stroke-width:0;stroke-linecap:butt;stroke-linejoin:miter;stroke-miterlimit:10;stroke-dasharray:none"
       id="g226"
       transform="matrix(3.89,0,0,3.89,-175.05,-175.05)" /></g>
    <g style="fill:none;filter:url(#inner-shadow-filter-0)" id="g236"
        transform="matrix(1.107829,0,0,1.106267,221.95533,199.03714)"><path
       style="fill:none;fill-opacity:1;stroke:url(#gradient-4-1);stroke-width:9.80924px;stroke-linecap:round;stroke-linejoin:round"
       d="m 78.642332,155.437 v 98.42 c 0,5.867 4.741,10.605 10.605,10.605 5.854,0 10.604995,-4.738 10.604995,-10.605 v -98.42 c 0,-5.856 -4.750995,-10.605 -10.604995,-10.605 -5.864,0 -10.605,4.744 -10.605,10.605 z"
       id="path230" />
        <path
            style="fill:url(#radialGradient5537);fill-opacity:1;stroke:url(#gradient-4-2);stroke-width:18.0661;stroke-linecap:round;stroke-linejoin:round;stroke-dasharray:none"
            d="m 29.456,264.582 h 23.351 v -116.85 c 0.064,-0.56 0.166,-1.119 0.166,-1.693 0,-50.412 40.69,-91.42 90.698,-91.42 50.002,0 90.692,41.008 90.692,91.42 0,0.771 0.113,1.518 0.228,2.263 v 116.28 h 23.354 c 16.254,0 29.442,-13.64 29.442,-30.469 v -60.936 c 0,-13.878 -8.989,-25.57 -21.261,-29.249 C 264.997,76.957 210.518,22.804 143.676,22.804 76.816,22.804 22.329,76.962 21.211,143.954 8.956,147.638 0,159.32 0,173.187 v 60.926 c 0,16.819 13.187,30.469 29.456,30.469 z"
            id="path232" />
        <path style="stroke-width:3.28861"
            d="M 49.735541,279.35822 C 23.7214,267.48486 38.122112,248.62719 80.85964,237.45225 c 14.400662,-3.49216 25.08508,-5.12184 43.66659,-4.88901 11.61348,0.23282 24.62053,3.49216 24.62053,3.49216 0,-42.13877 -0.46471,-121.7601 -0.46471,-160.872338 4.6454,0 7.89719,-0.232827 14.40071,-0.232827 0,2.328107 0,4.190613 0,6.053093 0,2.095305 0,3.259358 0.46471,4.656212 4.6454,14.66709 11.14893,20.48736 43.66659,38.41381 41.34392,23.04827 53.42195,36.78411 53.42195,55.17616 -0.46471,17.22802 -30.65954,54.01213 -37.16306,52.61528 9.29075,-13.03741 22.2978,-27.00606 25.54958,-38.64661 4.18085,-14.20147 -7.43263,-34.2232 -26.01414,-44.69971 -14.86522,-8.8468 -50.17016,-16.52957 -59.92547,-16.52957 0,0 -0.46472,84.74317 -0.46472,116.87109 0,5.35464 -9.7553,14.89989 -15.32977,18.15925 -25.54958,15.36551 -75.25519,22.34984 -97.553043,12.33896 z"
            id="path3079" />
        <path
            style="fill:none;stroke:url(#linearGradient5506);stroke-width:9.80924px;stroke-linecap:round;stroke-linejoin:round"
            d="m 188.76763,155.437 v 98.42 c 0,5.867 4.741,10.605 10.60501,10.605 5.854,0 10.605,-4.738 10.605,-10.605 v -98.42 c 0,-5.856 -4.751,-10.605 -10.605,-10.605 -5.86401,0 -10.60501,4.744 -10.60501,10.605 z"
            id="path5502" /></g>
    <g id="g240" transform="matrix(0.972684,0,0,0.972684,193.06382,142.14148)" />
    <g id="g242" transform="matrix(0.972684,0,0,0.972684,193.06382,142.14148)" />
    <g id="g244" transform="matrix(0.972684,0,0,0.972684,193.06382,142.14148)" />
    <g id="g246" transform="matrix(0.972684,0,0,0.972684,193.06382,142.14148)" />
    <g id="g248" transform="matrix(0.972684,0,0,0.972684,193.06382,142.14148)" />
    <g id="g250" transform="matrix(0.972684,0,0,0.972684,193.06382,142.14148)" />
    <g id="g252" transform="matrix(0.972684,0,0,0.972684,193.06382,142.14148)" />
    <g id="g254" transform="matrix(0.972684,0,0,0.972684,193.06382,142.14148)" />
    <g id="g256" transform="matrix(0.972684,0,0,0.972684,193.06382,142.14148)" />
    <g id="g258" transform="matrix(0.972684,0,0,0.972684,193.06382,142.14148)" />
    <g id="g260" transform="matrix(0.972684,0,0,0.972684,193.06382,142.14148)" />
    <g id="g262" transform="matrix(0.972684,0,0,0.972684,193.06382,142.14148)" />
    <g id="g264" transform="matrix(0.972684,0,0,0.972684,193.06382,142.14148)" />
    <g id="g266" transform="matrix(0.972684,0,0,0.972684,193.06382,142.14148)" />
    <g id="g268" transform="matrix(0.972684,0,0,0.972684,193.06382,142.14148)" /></svg>
